<svg version="1.2" xmlns="http://www.w3.org/2000/svg" viewBox="0 0 76 75" width="76" height="75"><style>.a{fill:#fff}</style><path class="a" d="m75.1 32.8c0 0.8-0.5 1.4-1.3 1.4q-0.1-0.1-0.2-0.1v0.1h-31.4c-0.7 0-1.3-0.6-1.3-1.4v-31.4q0-0.1 0-0.2c0-0.7 0.6-1.3 1.3-1.3 18.1 0.2 32.8 14.8 32.9 32.9z"/><path class="a" d="m67.5 40.5q0 0.2 0 0.3c0 18.4-14.9 33.3-33.3 33.3-18.4 0-33.3-14.9-33.3-33.3 0-18.4 14.9-33.3 33.3-33.3q0.1 0 0.3 0 0.1 0 0.1 0c0.7 0 1.3 0.6 1.3 1.3q0 0.1 0 0.2v28.8c0 0.7 0.6 1.3 1.4 1.3h28.9c0.7 0 1.3 0.6 1.3 1.4q0 0 0 0z"/></svg>