<svg xmlns="http://www.w3.org/2000/svg" width="17.5" height="17.5" viewBox="0 0 17.5 17.5">
  <g id="dashboard" transform="translate(-3.25 -3.25)">
    <path id="Path_48" data-name="Path 48" d="M14.293,4.293C14,4.586,14,5.057,14,6s0,1.414.293,1.707S15.057,8,16,8h2c.943,0,1.414,0,1.707-.293S20,6.943,20,6s0-1.414-.293-1.707S18.943,4,18,4H16C15.057,4,14.586,4,14.293,4.293Zm-10,12C4,16.586,4,17.057,4,18s0,1.414.293,1.707S5.057,20,6,20H8c.943,0,1.414,0,1.707-.293S10,18.943,10,18s0-1.414-.293-1.707S8.943,16,8,16H6C5.057,16,4.586,16,4.293,16.293ZM14,14c0-.943,0-1.414.293-1.707S15.057,12,16,12h2c.943,0,1.414,0,1.707.293S20,13.057,20,14v4c0,.943,0,1.414-.293,1.707S18.943,20,18,20H16c-.943,0-1.414,0-1.707-.293S14,18.943,14,18ZM4.293,4.293C4,4.586,4,5.057,4,6v4c0,.943,0,1.414.293,1.707S5.057,12,6,12H8c.943,0,1.414,0,1.707-.293S10,10.943,10,10V6c0-.943,0-1.414-.293-1.707S8.943,4,8,4H6C5.057,4,4.586,4,4.293,4.293Z" fill="#9fa0a2" fill-rule="evenodd"/>
    <path id="Path_49" data-name="Path 49" d="M4.823,4.823h0l.01,0A.706.706,0,0,1,5,4.78a8.63,8.63,0,0,1,1-.03H8a8.63,8.63,0,0,1,1,.03.706.706,0,0,1,.167.037l.01,0h0v0l0,.01A.706.706,0,0,1,9.22,5a8.63,8.63,0,0,1,.03,1v4a8.63,8.63,0,0,1-.03,1,.7.7,0,0,1-.037.167l0,.01v0h0l-.01,0A.7.7,0,0,1,9,11.22a8.639,8.639,0,0,1-1,.03H6a8.639,8.639,0,0,1-1-.03.7.7,0,0,1-.167-.037l-.01,0h0v0l0-.01A.7.7,0,0,1,4.78,11a8.629,8.629,0,0,1-.03-1V6a8.63,8.63,0,0,1,.03-1,.706.706,0,0,1,.037-.167l0-.01ZM5.955,3.25h2.09A9.287,9.287,0,0,1,9.2,3.293a1.733,1.733,0,0,1,1.04.469,1.733,1.733,0,0,1,.469,1.04,9.277,9.277,0,0,1,.043,1.152v4.09a9.276,9.276,0,0,1-.043,1.152A1.613,1.613,0,0,1,9.2,12.707a9.277,9.277,0,0,1-1.152.043H5.955A9.277,9.277,0,0,1,4.8,12.707a1.733,1.733,0,0,1-1.04-.469,1.733,1.733,0,0,1-.469-1.04,9.284,9.284,0,0,1-.043-1.152V5.955A9.285,9.285,0,0,1,3.293,4.8a1.733,1.733,0,0,1,.469-1.04A1.733,1.733,0,0,1,4.8,3.293,9.286,9.286,0,0,1,5.955,3.25Zm8.87,1.572h0v0l0,.01A.7.7,0,0,0,14.78,5a8.639,8.639,0,0,0-.03,1,8.639,8.639,0,0,0,.03,1,.7.7,0,0,0,.037.167l0,.005,0,.005v0h0l.01,0A.7.7,0,0,0,15,7.22a8.629,8.629,0,0,0,1,.03h2a8.629,8.629,0,0,0,1-.03.7.7,0,0,0,.167-.037l.01,0h0v0l0-.01A.7.7,0,0,0,19.22,7a8.639,8.639,0,0,0,.03-1,8.639,8.639,0,0,0-.03-1,.7.7,0,0,0-.037-.167l0-.01v0h0l-.01,0A.7.7,0,0,0,19,4.78a8.629,8.629,0,0,0-1-.03H16a8.629,8.629,0,0,0-1,.03.7.7,0,0,0-.167.037Zm1.13-1.572h2.089a9.286,9.286,0,0,1,1.153.043,1.733,1.733,0,0,1,1.04.469,1.733,1.733,0,0,1,.469,1.04,9.277,9.277,0,0,1,.043,1.152v.089A9.277,9.277,0,0,1,20.707,7.2,1.613,1.613,0,0,1,19.2,8.707a9.286,9.286,0,0,1-1.153.043H15.955A9.286,9.286,0,0,1,14.8,8.707a1.613,1.613,0,0,1-1.51-1.51,9.277,9.277,0,0,1-.043-1.152V5.955A9.277,9.277,0,0,1,13.293,4.8a1.733,1.733,0,0,1,.469-1.04,1.733,1.733,0,0,1,1.04-.469A9.286,9.286,0,0,1,15.955,3.25Zm0,8h2.089a9.3,9.3,0,0,1,1.153.043,1.613,1.613,0,0,1,1.509,1.51,9.277,9.277,0,0,1,.043,1.153v4.089a9.276,9.276,0,0,1-.043,1.152A1.613,1.613,0,0,1,19.2,20.707a9.277,9.277,0,0,1-1.153.043H15.955a9.277,9.277,0,0,1-1.153-.043,1.613,1.613,0,0,1-1.51-1.509,9.276,9.276,0,0,1-.043-1.152V13.955a9.277,9.277,0,0,1,.043-1.153,1.613,1.613,0,0,1,1.51-1.51A9.3,9.3,0,0,1,15.955,11.25Zm-1.13,1.572h0v0l0,.01A.7.7,0,0,0,14.78,13a8.638,8.638,0,0,0-.03,1v4a8.638,8.638,0,0,0,.03,1,.7.7,0,0,0,.037.167l0,.01v0h0l.01,0A.7.7,0,0,0,15,19.22a8.638,8.638,0,0,0,1,.03h2a8.638,8.638,0,0,0,1-.03.7.7,0,0,0,.167-.037l.01,0h0v0l0-.01A.7.7,0,0,0,19.22,19a8.638,8.638,0,0,0,.03-1V14a8.638,8.638,0,0,0-.03-1,.7.7,0,0,0-.037-.167l0-.007,0,0v0h0l-.01,0A.7.7,0,0,0,19,12.78a8.638,8.638,0,0,0-1-.03H16a8.638,8.638,0,0,0-1,.03.7.7,0,0,0-.167.037Zm-10,4h0v0l0,.01A.705.705,0,0,0,4.78,17a8.629,8.629,0,0,0-.03,1,8.629,8.629,0,0,0,.03,1,.7.7,0,0,0,.037.167l0,.01v0h0l.01,0A.7.7,0,0,0,5,19.22a8.639,8.639,0,0,0,1,.03H8a8.639,8.639,0,0,0,1-.03.7.7,0,0,0,.167-.037l.006,0,0,0h0v-.005l0-.007A.7.7,0,0,0,9.22,19a8.63,8.63,0,0,0,.03-1,8.63,8.63,0,0,0-.03-1,.706.706,0,0,0-.037-.167l0-.01v0h0l-.01,0A.7.7,0,0,0,9,16.78a8.639,8.639,0,0,0-1-.03H6a8.639,8.639,0,0,0-1,.03.7.7,0,0,0-.167.037Zm1.13-1.572H8.045a9.3,9.3,0,0,1,1.152.043A1.613,1.613,0,0,1,10.707,16.8a9.277,9.277,0,0,1,.043,1.153v.09a9.276,9.276,0,0,1-.043,1.152A1.613,1.613,0,0,1,9.2,20.707a9.277,9.277,0,0,1-1.152.043H5.955A9.277,9.277,0,0,1,4.8,20.707a1.733,1.733,0,0,1-1.04-.469,1.733,1.733,0,0,1-.469-1.04,9.284,9.284,0,0,1-.043-1.152v-.09A9.285,9.285,0,0,1,3.293,16.8a1.733,1.733,0,0,1,.469-1.04,1.733,1.733,0,0,1,1.04-.469A9.3,9.3,0,0,1,5.955,15.25Z" fill="#9fa0a2" fill-rule="evenodd"/>
  </g>
</svg>
