<svg xmlns="http://www.w3.org/2000/svg" width="20" height="14.984" viewBox="0 0 20 14.984">
  <g id="Delete_user" data-name="Delete user" transform="translate(-0.001 -4.477)">
    <path id="Path_58" data-name="Path 58" d="M6.477,8A3.524,3.524,0,1,1,10,11.526,3.524,3.524,0,0,1,6.477,8Zm13.509,6.634-.493-2.953a1.436,1.436,0,0,0-1.062-1.112,2.646,2.646,0,0,1-3.514,0,1.434,1.434,0,0,0-1.063,1.112l-.012.069a2.325,2.325,0,0,0-1.047-.589,4.206,4.206,0,0,1-5.589,0,2.325,2.325,0,0,0-1.047.589l-.012-.069a1.437,1.437,0,0,0-1.063-1.112,2.646,2.646,0,0,1-3.514,0A1.434,1.434,0,0,0,.509,11.683L.017,14.636a.959.959,0,0,0,.976,1.153H5.039l-.307,1.84A1.526,1.526,0,0,0,6.284,19.46h7.433a1.527,1.527,0,0,0,1.553-1.833l-.307-1.84h4.047A.96.96,0,0,0,19.985,14.636ZM16.673,10.8a2.216,2.216,0,1,0-2.215-2.216A2.215,2.215,0,0,0,16.673,10.8Zm-13.345,0A2.216,2.216,0,1,0,1.112,8.585,2.215,2.215,0,0,0,3.328,10.8Z" fill="#888383"/>
  </g>
</svg>
