<svg id="Manage_help" data-name="Manage help" xmlns="http://www.w3.org/2000/svg" width="18" height="18" viewBox="0 0 18 18">
  <g id="Group_64" data-name="Group 64">
    <path id="Path_61" data-name="Path 61" d="M9,0a9,9,0,1,0,9,9A9,9,0,0,0,9,0ZM9,3.733a5.226,5.226,0,0,1,3.379,1.228l-1.76,1.76a2.787,2.787,0,0,0-3.239,0l-1.76-1.76A5.228,5.228,0,0,1,9,3.733ZM4.961,5.621,6.72,7.381a2.787,2.787,0,0,0,0,3.239l-1.759,1.76A5.274,5.274,0,0,1,4.961,5.621ZM9,14.267a5.225,5.225,0,0,1-3.379-1.228l1.76-1.76a2.786,2.786,0,0,0,3.239,0l1.76,1.76A5.228,5.228,0,0,1,9,14.267Zm4.039-1.888-1.76-1.76a2.8,2.8,0,0,0,0-3.238l1.76-1.76A5.275,5.275,0,0,1,13.039,12.379Z" fill="#888383"/>
  </g>
</svg>
