<svg xmlns="http://www.w3.org/2000/svg" width="20.253" height="14.453" viewBox="0 0 20.253 14.453">
  <g id="Manage_amenties" data-name="Manage amenties" transform="translate(0 -73.392)">
    <path id="Path_62" data-name="Path 62" d="M279.537,178.1h-3.514a.629.629,0,0,0-.623.623v1.247a.629.629,0,0,0,.623.623h3.7a.629.629,0,0,0,.623-.623v-1.247a.629.629,0,0,0-.623-.623Z" transform="translate(-264.518 -100.572)" fill="#888383"/>
    <path id="Path_63" data-name="Path 63" d="M10.041,355.007v3.325h1.228V357.1H28.2v1.228h1.228v-3.325H10.041Z" transform="translate(-9.644 -270.487)" fill="#888383"/>
    <g id="Group_65" data-name="Group 65" transform="translate(0.416 73.392)">
      <path id="Path_64" data-name="Path 64" d="M28.693,73.392v2l-.019-.019v.019a4.132,4.132,0,0,0-2.891-1.171H14.656a4.2,4.2,0,0,0-2.891,1.171v-.019l-.019.019v-2H10.519v7.425A1.608,1.608,0,0,1,11.974,80h2.248a1.031,1.031,0,0,1-.208-.623V78.153a1.048,1.048,0,0,1,1.039-1.039h3.741a1.048,1.048,0,0,1,1.039,1.039v1.228a1.031,1.031,0,0,1-.208.623h1.209a1.031,1.031,0,0,1-.208-.623V78.153a1.048,1.048,0,0,1,1.039-1.039h3.741a.986.986,0,0,1,.964,1.039v1.228a1.031,1.031,0,0,1-.208.623h2.324a1.63,1.63,0,0,1,1.455.812V73.392Z" transform="translate(-10.519 -73.392)" fill="#888383"/>
    </g>
    <path id="Path_65" data-name="Path 65" d="M108.679,179.64h3.7a.629.629,0,0,0,.623-.623v-1.247a.629.629,0,0,0-.623-.623h-3.7a.629.629,0,0,0-.623.623v1.247A.641.641,0,0,0,108.679,179.64Z" transform="translate(-103.786 -99.654)" fill="#888383"/>
    <path id="Path_66" data-name="Path 66" d="M19.818,303.408a.678.678,0,0,0-.208-.038H.6a.672.672,0,0,0-.189.038.639.639,0,0,0-.416.586v.416a.613.613,0,0,0,.416.586.678.678,0,0,0,.208.038H19.629a.24.24,0,0,0,.113-.019c.038,0,.057-.019.094-.019a.639.639,0,0,0,.416-.586v-.416A.679.679,0,0,0,19.818,303.408Z" transform="translate(0 -220.891)" fill="#888383"/>
    <path id="Path_67" data-name="Path 67" d="M29.883,252.212a1.5,1.5,0,0,0-1.4-1.436H11.954a1.5,1.5,0,0,0-1.4,1.436c-.019.076-.019.151-.038.208h19.4C29.9,252.363,29.9,252.287,29.883,252.212Z" transform="translate(-10.102 -170.375)" fill="#888383"/>
  </g>
</svg>
