<svg xmlns="http://www.w3.org/2000/svg" width="22" height="22" viewBox="0 0 22 22">
  <path id="Manage_room" data-name="Manage room" d="M13,2A11,11,0,1,0,24,13,11,11,0,0,0,13,2M11.533,6.767a.789.789,0,0,1,.733-.733h1.467a.789.789,0,0,1,.733.733V8.233a.787.787,0,0,1-.733.733H12.267a.787.787,0,0,1-.733-.733V6.767m3.667,7.7-.367-3.3-.367,8.8h-1.1L13,15.2l-.367,4.767h-1.1l-.367-8.8-.367,3.3H9.7l.367-4.033A.789.789,0,0,1,10.8,9.7h4.4a.789.789,0,0,1,.733.733l.367,4.033H15.2" transform="translate(-2 -2)" fill="#888383"/>
</svg>
