<svg xmlns="http://www.w3.org/2000/svg" width="22.1" height="23.548" viewBox="0 0 22.1 23.548">
  <g id="Manage_user" data-name="Manage user" transform="translate(0 -2.961)">
    <g id="Group_58" data-name="Group 58" transform="translate(0 2.961)">
      <circle id="Ellipse_3" data-name="Ellipse 3" cx="2.637" cy="2.637" r="2.637" transform="translate(1.858 0)" fill="#888383"/>
      <path id="Path_54" data-name="Path 54" d="M366.966,2.961A2.637,2.637,0,1,1,364.328,5.6,2.637,2.637,0,0,1,366.966,2.961Z" transform="translate(-349.361 -2.961)" fill="#888383"/>
      <path id="Path_55" data-name="Path 55" d="M19.765,112.109a2.543,2.543,0,0,1-3.673,0,3.261,3.261,0,0,0-2.192,2.263,14.852,14.852,0,0,0-5.7,0,3.261,3.261,0,0,0-2.192-2.263,2.543,2.543,0,0,1-3.673,0A3.345,3.345,0,0,0,0,115.37v2.737l.006.042.175.059a14.985,14.985,0,0,0,1.563.433A4.163,4.163,0,0,0,1.39,120.3c0,2.486,2.285,4.633,5.575,5.624a3.581,3.581,0,0,0-.189,1.149v2.737l.007.043.175.059a13.327,13.327,0,0,0,4.26.74,8.222,8.222,0,0,0,3.72-.753l.164-.089h.017v-2.737a3.587,3.587,0,0,0-.17-1.1c3.389-.965,5.761-3.146,5.761-5.678a4.145,4.145,0,0,0-.321-1.586,6.241,6.241,0,0,0,1.53-.521l.164-.089H22.1V115.37A3.345,3.345,0,0,0,19.765,112.109Zm.277,8.2c0,2.243-2.216,4.175-5.381,5.025a3.18,3.18,0,0,0-1.877-1.513,2.544,2.544,0,0,1-3.673,0,3.176,3.176,0,0,0-1.85,1.464c-3.07-.874-5.2-2.776-5.2-4.977a3.534,3.534,0,0,1,.358-1.53,12.258,12.258,0,0,0,2.025.175,8.224,8.224,0,0,0,3.72-.753l.164-.089h.018V115.37c0-.1,0-.2-.012-.3a14.5,14.5,0,0,1,5.44,0c-.008.1-.013.2-.013.3v2.737l.007.043.175.059a13.331,13.331,0,0,0,4.26.74,10.4,10.4,0,0,0,1.516-.108A3.52,3.52,0,0,1,20.042,120.3Z" transform="translate(0 -107.11)" fill="#888383"/>
      <circle id="Ellipse_4" data-name="Ellipse 4" cx="2.637" cy="2.637" r="2.637" transform="translate(8.313 11.708)" fill="#888383"/>
    </g>
  </g>
</svg>
