<svg xmlns="http://www.w3.org/2000/svg" width="20" height="20" viewBox="0 0 20 20">
  <path id="Manage_home_cities" data-name="Manage home cities" d="M10,0A10,10,0,1,0,20,10,10,10,0,0,0,10,0Zm0,2.5a7.42,7.42,0,0,1,2.35.475c-.525.5-1.125.95-1.025,1.4s1.725.325,1.725,1.25c0,.675-1.05.875-.325,1.65.875.875-1.6,2.45-1.65,3.6C11,12.95,13.175,13.3,14.9,13.3c1.05,0,1.325.5,1.25,1.1a7.521,7.521,0,0,1-6.175,3.125,7.168,7.168,0,0,1-2.65-.55c.55-1.1-.7-3.275-1.875-3.975-.575-.575-1.8-.35-2.5-.625a7.341,7.341,0,0,1-.475-2.1.442.442,0,0,1,.4-.225c.475,0,1.125.95,1.475.85C4.8,10.8,2.5,7.625,3.575,7c.5-.3,1.5.975,1.175-.4-.3-1.275.9-.7,1.65-1.025C7.05,5.3,7.525,4.55,6.725,4.1a2.672,2.672,0,0,1-.55-.475A7.42,7.42,0,0,1,10,2.525Zm5.775,2.725a8.268,8.268,0,0,1,1.1,1.8V7.1c-.1.175-.275.275-.55.55-.7.7-.8-.525-1.1-.775-.325-.3-1.5.05-1.65-.325-.175-.45,1.25-1.05,2.2-1.325Z" fill="#888383"/>
</svg>
