<svg xmlns="http://www.w3.org/2000/svg" width="24.767" height="18.008" viewBox="0 0 24.767 18.008">
  <g id="Manage-admin" transform="translate(0 -66.601)">
    <g id="Group_57" data-name="Group 57" transform="translate(0 66.601)">
      <path id="Path_52" data-name="Path 52" d="M285.718,73.3h-3.576A3.942,3.942,0,0,0,280.9,80.98v1.878a.194.194,0,0,0,.333.136l1.813-1.813h2.675a3.942,3.942,0,0,0,0-7.884Zm-.164,4.4h-1.174v1.174h-.906V77.7H282.3v-.906h1.174V75.618h.906v1.174h1.174Z" transform="translate(-264.894 -72.932)" fill="#888383"/>
      <path id="Path_53" data-name="Path 53" d="M16.153,80.854A26.652,26.652,0,0,0,11.24,77.6a.152.152,0,0,1-.083-.142V75.77a4.023,4.023,0,0,0,.476-1.35c.182-.015.422-.279.682-1.223.334-1.213.02-1.456-.28-1.456a2.334,2.334,0,0,0,.069-.31c.54-3.344-1.055-3.461-1.055-3.461a2.534,2.534,0,0,0-.957-.923,3.156,3.156,0,0,0-1.968-.431,3.044,3.044,0,0,0-.785.152h0a3.457,3.457,0,0,0-.864.457,4.552,4.552,0,0,0-.888.761,3.763,3.763,0,0,0-.962,1.74,3.824,3.824,0,0,0,.01,1.7h0c.02.1.044.208.069.31-.3.005-.594.259-.265,1.451.26.944.5,1.208.682,1.223A4.1,4.1,0,0,0,5.6,75.76v1.68a.161.161,0,0,1-.083.142A27.294,27.294,0,0,0,.6,80.839,1.743,1.743,0,0,0,0,82.169v2.441H7.279L8,81.215c-1.453-2.1.108-2.2.383-2.2h0c.27,0,1.831.1.383,2.2l.717,3.395h7.279V82.169A1.756,1.756,0,0,0,16.153,80.854Z" transform="translate(0 -66.601)" fill="#888383"/>
    </g>
  </g>
</svg>
