<svg xmlns="http://www.w3.org/2000/svg" width="26" height="16.156" viewBox="0 0 26 16.156">
  <g id="Manage_Cookie" data-name="Manage Cookie" transform="translate(0 -115.853)">
    <g id="Group_59" data-name="Group 59" transform="translate(0 115.853)">
      <path id="Path_56" data-name="Path 56" d="M25.9,124.332a.84.84,0,0,0,0-.8,14.673,14.673,0,0,0-25.8,0,.84.84,0,0,0,0,.8,14.673,14.673,0,0,0,25.8,0Zm-12.9,5.8a6.2,6.2,0,1,1,6.2-6.2A6.2,6.2,0,0,1,13,130.128Z" transform="translate(0 -115.853)" fill="#888383"/>
      <path id="Path_57" data-name="Path 57" d="M234.827,231.67a3.165,3.165,0,0,0-.756.091,1.638,1.638,0,0,1-2.31,2.31,3.158,3.158,0,1,0,3.067-2.4Z" transform="translate(-221.827 -226.75)" fill="#888383"/>
    </g>
  </g>
</svg>
